<?xml version="1.0" encoding="utf-8"?>
<!-- Generator: Adobe Illustrator 19.2.1, SVG Export Plug-In . SVG Version: 6.00 Build 0)  -->
<svg version="1.1" id="layer" xmlns="http://www.w3.org/2000/svg" xmlns:xlink="http://www.w3.org/1999/xlink" x="0px" y="0px"
	 viewBox="0 0 652 652" style="enable-background:new 0 0 652 652;" xml:space="preserve">
<style type="text/css">
	.st0{fill:#172D55;}
	.st1{fill:#E8242F;}
	.st2{fill:#9F2C8C;}
	.st3{fill:#00ABD8;}
	.st4{fill:#FACD71;}
</style>
<path class="st0" d="M250.3,566.1c-6.9-0.8-13.7-1.9-20.5-3.1c-20.8-3.6-41.4-8.2-62-13.2c-25.7-6.2-49.4-17-72.4-29.5
	c-10-5.4-19.2-12.4-28.4-19.4c-6.1-4.7-12.3-9.4-18.8-13.6c-4-2.6-7.4-6.2-10.9-9.6c-6-5.8-11.7-11.8-17.6-17.6
	c-1.5-1.5-3.3-3.8-5.2-3.1c-1.8,0.6-0.4,3.3-0.3,4.9c0.4,7.8,0.2,15.6-0.5,23.4c-0.6,6.9,1.2,13.7,2,20.6c1.7,13.6,2.1,27.3,2.3,41
	c0.1,3.1-1.2,4.2-4.2,4c-7.1-0.6-14.2,1.4-21.4,0c-3.9-0.8-8,1.3-12,2.4c-6.5,1.9-13.4,1.5-19.8,4c-2.2,0.8-4.7,1-6.8,2.3
	c-3.2,2-6.5,0.4-7.1-3.4c-0.9-6.2-2-12.3-2.3-18.6c-0.8-20.5-2.9-40.9-3.5-61.4c-0.5-16.9-1.6-33.8-0.6-50.7
	c0.5-8.6,0.2-17.2,0.8-25.7c0.5-6.2,2.3-12.4,2.3-18.6c-0.1-16.5,3.9-32.5,5.2-48.8c1-12.1,2.1-24.2,2.5-36.4
	c0.3-11.1,1-22.2,4.6-32.9c0.5-1.6,0.8-3.3,1-4.9c0.8-5.9,6.3-10.2,12.1-8.9c9.2,2,18.4,3.4,27.8,3.7c9.4,0.3,18.9,1.3,28.2-0.7
	c2.4-0.5,4.5-2.2,7.3-1.2c4.1,1.5,5.5,5.8,2.5,9.1c-2,2.2-2.8,4.9-3.2,7.5c-1.4,8.6-1.9,17.3-5.6,25.3c-1.5,3.4-2.4,6.9-1.7,10.8
	c1,5.4-1.5,10.5-2.3,15.7c-0.1,0.8-0.9,1.9,0.2,2.4c1.1,0.5,1.4-0.7,2-1.4c7.2-8.2,12.5-17.9,20.5-25.4
	c19.7-18.6,40.4-35.9,64.7-48.4c5.9-3,11.8-6.2,17.8-9.1c7.1-3.4,14.8-1,18,5.8c1.5,3.1,3.4,5.6,5.9,7.9c4.4,3.9,8.7,8,12.2,12.8
	c0.8,1.1,1.8,2.2,3,3c4.2,3,4.1,7.2-0.3,10c-1.1,0.7-2.3,1.4-2.9,2.4c-3.9,6-9.8,10-15,14.7c-4.8,4.4-8,10-12.3,14.8
	c-9.7,10.7-18.9,21.8-27.6,33.3c-11,14.5-22.6,28.5-35.3,41.6c-4.7,4.9-8.3,10.9-12.7,16.1c-7.5,8.7-14.5,17.8-23.2,25.3
	c-0.1,0.1-0.2,0.2-0.3,0.3c-2.7,2.7-6.5,5.8-6,9.4c0.4,2.7,5.4,2.6,8.3,3.6c16.6,5.4,33.5,9.7,50.2,14.5
	c15.8,4.5,31.8,8.1,47.9,10.9c16.9,2.9,34,4.5,51.1,6.5c14,1.6,28,3.1,42,4.4c6.5,0.6,13,1,19.5,1.3c2.6,0.1,5.1,0.2,7.6,1.1
	c-1.3,3.7-4,6.6-6.1,9.7c-0.8,1.2-2,2.3-1.7,3.8c1.1,6.8-1,13.5-0.6,20.2c0.4,8.6-0.8,17.1,1.2,25.8
	C252.4,546.2,252,556.3,250.3,566.1"/>
<path class="st0" d="M197.2,421.6c10.1,0.6,19.9-1.6,29.8-2.9c2.5-0.3,4-2,5.1-4.2c3.4-6.5,7.2-12.7,11.8-18.4
	c1.9-2.3,3.2-5.2,4.9-7.7c1-1.5,0.5-2.9-0.4-4.3c-4.7-7.8-9.4-15.6-14-23.4c-2.3-3.9-3.3-4.2-7.3-2c-4.5,2.5-8.2,6.1-11.7,9.9
	c-2.1,2.3-1.9,4.2,0.3,6.1c5.6,4.7,9.8,10.9,14.7,16.2c2,2.1,2.1,3.7-0.1,5.3c-5.3,4.1-9.3,9.6-15.2,13.1c-2.3,1.4-3.3,4.3-6.3,5.2
	c-2.3,0.7-3.7,0.2-4.9-1.6c-2-2.8-4.3-5.2-7.3-7.1c-3.7-2.3-6.1-6.3-8.6-9.6c-6-8-10.4-17-10.7-27.5c-0.1-2.8,0.7-4.9,2.6-7.2
	c8-10.2,18-18.5,27.4-27.2c5.5-5,12.6-8.6,19.4-6.7c8.1,2.3,16.7,4.1,23.6,9.7c3.8,3.1,8.3,4.9,12.6,7.1c8.1,4.1,15.4,9.3,22.1,15.6
	c3.8,3.6,3.3,7.6,3.9,11.4c1.5,9.7,2.7,19.5,2,29.4c-0.2,3.4-1.5,6.3-3.3,9.3c-2.1,3.5-2.8,7.7-4.2,11.6c-2.5,7.2-7.3,13-12.5,18.4
	c-1.1,1.1-2.3,2.1-3.2,3.3c-3.3,4.3-7.6,5.9-12.8,7.3c-5.5,1.5-11.1,2.1-16.5,3.9c-9.6,3.2-19.9,1.5-29.7,3
	c-8.2,1.2-16.3,1.1-24.4-0.4c-0.9-0.2-1.7-0.3-2.6-0.5c-33.2-7.8-52.1-29.8-60.2-61.9c-3.3-12.8-3.5-25.9-0.6-38.9
	c2-8.9,6.8-16.3,12.3-23.4c9-11.5,21-18.9,33.6-25.7c3.8-2,7.2-4.7,10.8-7.1c0.7-0.5,1.5-1.1,2.3-1.3c3.5-0.9,6.2-1,8.5,3.1
	c4,6.8,8.8,13.2,14.6,18.8c4.4,4.2,3.5,6.6-2.1,9.1c-6.2,2.8-12.5,5.6-17.2,10.9c-1.9,2.2-4.5,3.8-6.8,5.7
	c-4.3,3.5-8.2,7.3-11.5,11.8c-7.5,10.1-6.4,21.5-5,32.9c1.3,10.1,7.2,17.4,14.1,24.4c5.3,5.3,10.6,7.9,17.9,6.3
	C194.1,421.3,195.7,421.6,197.2,421.6"/>
<path class="st0" d="M535.6,396.9c0.5-6.6-0.5-13.7,1.2-20.9c1.1-4.8,0.4-10.1,1.7-15.1c2.4-9.1,4.8-18,10.3-26
	c4.3-6.3,9.2-11.7,14.6-16.8c2.9-2.7,6.7-4.6,10-6.8c1.2-0.8,2.6-0.8,3.7-0.3c2.6,1.4,5.5,1.4,8.3,1.3c8.4-0.4,16.6,0.8,24.9,1.5
	c0.9,0.1,2.1,0.6,2.8-0.5c0.5-0.9-0.4-1.7-0.7-2.4c-1.4-3.2-4.6-4.3-7.2-6c-4.7-3.1-10-5-15.7-5.5c-6.5-0.6-8.2-5.3-4.8-12
	c1.9-3.8,4.3-7.3,4.9-11.8c0.3-2.7,2.4-3.9,5.2-2.6c7.7,3.4,15.4,7,23.2,10.1c2.6,1,4.7,2.8,6.6,4.3c7.2,5.8,15.5,10.3,19.3,19.7
	c2.5,6.4,6.2,12.3,10,18.1c3.1,4.7,3.3,10.6,4.6,16c1.6,6.5,1.8,13.5,4,19.8c2.7,7.7,2.9,15.7,4.5,23.5c1.2,6.1,2.1,12,4.9,17.8
	c3.5,7.1,8.1,13.4,12.5,19.8c4.1,6,10.2,10.6,15.7,15.6c1.9,1.8,2.2,2.5,0.1,4.7c-5.4,5.6-10.4,11.5-15.4,17.5
	c-2.7,3.4-4.9,4.1-8.6,1.6c-2.5-1.7-5.5-2.1-8.1-4c-4.5-3.3-7.5-8.2-12-11c-6.4-3.9-7.1-11.2-11.7-16.2c-2.1-2.2-3.3-2.6-5.8-0.7
	c-7,5.2-14,10.3-21.8,14.4c-4.4,2.4-8.6,6.1-13.1,7.2c-6.6,1.6-13.7,3.2-20.8,1c-8.8-2.7-16.5-7.7-24.7-11.7
	c-4.7-2.3-8.3-5.8-12.2-8.9c-6.3-4.9-9.4-11.6-9.7-19.7C536.2,407.2,535.9,402.4,535.6,396.9 M628.7,364.7c0-1.9,0.3-3.9-0.1-5.8
	c-0.4-2.6-0.1-5.7-2.4-7.3c-7.1-5-15.1-6.8-23.7-5.8c-1.5,0.2-2.8,0.8-4,1.9c-2.8,2.5-5.7,5-9,6.9c-6,3.5-10.1,8.1-11.8,15
	c-1.8,7.3-0.8,14.9-2,22.1c-1.2,7.2,2.3,11.3,7.3,15.2c2.3,1.8,5.4,0.4,7.6,2.2c2.5,2.2,5.3,1.8,7.8,0.5c3.1-1.6,6-3.8,9-5.6
	c6.6-3.8,11.6-9.5,17.5-14.1c2.6-2,6.2-4,5.3-8.9C629.1,375.7,628.6,370.2,628.7,364.7"/>
<path class="st0" d="M424.9,385.9c4.7,8.1,4.7,17.6,9.4,25.4c2.6,4.2,7.2,7.2,12.4,6.8c6.2-0.5,12.6-0.4,18.6-1.8
	c5.3-1.3,10.6-1.3,15.9-1.9c3.9-0.4,6.3-3.4,8.9-5.6c4.4-3.7,8.7-7.5,12.2-12.2c1.5-2,4.1-1.5,6.1-0.6c4.9,2.1,9.6,4.5,14.4,6.9
	c2.5,1.3,2.7,2.7,2.2,5.9c-1.6,10.8-9.1,17.2-15.6,24.6c-4.4,5-9.7,8.7-15,12.4c-0.5,0.4-1.1,0.7-1.7,0.8
	c-9.9,2.3-18.9,7.3-28.5,10.3c-9.1,2.9-18.2,3.2-27.2-1c-8.5-4-17.2-7.3-25.9-10.8c-3.5-1.4-6.2-4.2-7.1-7.1
	c-2.6-8.2-7-15.7-8.2-24.5c-0.9-6.6-3.4-13.1-5.1-19.6c-3-11.7-4.3-23.5-0.3-35.1c1.6-4.6,4.1-9.3,8.3-12.6c2.9-2.2,4-6,5.6-9.1
	c4.1-7.9,10.2-13.8,17.1-18.9c5-3.7,9.5-7.8,12.7-13.2c0.6-0.9,1.3-1.7,2.4-1.7c2.4-0.1,3.9-1.8,5.4-3.3c1.7-1.7,3.6-3.1,6.1-2.2
	c4.6,1.7,9.6,0.9,14.3,2.3c8.3,2.5,16.8,4.3,24.9,7.8c6.7,2.9,11.4,7.7,16.7,11.8c3.8,2.9,6.7,7.3,9.3,11.5
	c6.9,10.9,7.3,23.3,6.5,35.6c-0.3,4.3-3.5,8.3-7.1,11.1c-1,0.8-1.9,1.5-2.6,2.6c-2.2,3.8-6.5,5.5-10,6.4c-4.2,1-7.3,4-11.6,4.7
	c-6.4,1.1-12.7,2.3-19.4,2.3c-5.7,0.1-11.1-1-16.7-1.4c-4.5-0.4-9.1-1.6-13.3-3.3C434.5,387.4,429.4,388.6,424.9,385.9 M459.3,368.4
	c4.9-0.3,9.2,0.2,13.3-0.7c13.2-2.6,13-0.9,15.3-17c0.2-1.6-0.4-2.8-1.1-4.2c-2.2-4.1-6.5-5.6-9.6-8.6c-4.1-4-9.1-6.3-14-8.6
	c-5.6-2.6-10.6-3.6-16.7,1c-4.7,3.5-8.5,7.3-11.7,12c-3.6,5.2-4,11.6-5.9,17.4c-0.5,1.5-0.1,1.8,1.3,2.4c4.6,2.1,9.7,2.7,14.4,4.3
	C449.7,368.2,454.9,367.7,459.3,368.4"/>
<path class="st0" d="M306.6,394.5c0.2-16.3-1.2-32.4-2.9-48.6c-0.6-6-0.5-12.3,0.1-18.4c0.4-4.3-0.5-8.6-0.7-12.8
	c-0.1-4.4-0.6-8.5-1.7-12.7c-0.7-2.7-1.6-5-3.6-7c-0.7-0.7-2.4-2.6-0.1-2.9c6.3-0.8,10.5-5.6,16.3-7.4c2.9-0.9,5.4-2.9,8.7-1.5
	c1.3,0.5,2.3-0.8,3.4-1.5c3.6-2.3,4.8-1.7,7.7,1.4c4.5,4.9,7.4,10.7,10.9,16.2c1.6,2.4,1,5.2,1.9,7.8c0.8,2.2,1.8,2.6,3.5,1.3
	c1.4-1.1,2.9-2.2,4.1-3.5c9-9.5,20-16.2,32.5-19.6c8.1-2.2,16.6-2.7,24.6,1.7c1.8,1,3.9,1.4,5.8,2.1c3.7,1.3,3.9,1.8,1.4,4.9
	c-1.9,2.4-4.3,4.4-6.3,6.7c-3.5,4.1-5.8,9-8.8,13.5c-1.3,2-3.2,3.8-5.7,2.9c-11.1-4.3-18.6,1.7-25.8,8.6c-2.9,2.8-4.9,6.4-7.2,9.8
	c-2.1,3.2-3.6,7-6.6,9.6c-1.8,1.6-2.5,3.3-2,5.4c1.3,6.1-0.3,12.2,0,18.2c0.3,5.9-1.6,11.9,0.9,17.8c0.6,1.3,0.3,3-0.4,4.1
	c-3.2,5.6-2.4,12-3.5,17.9c-0.5,2.6,0.9,5.6,1,8.7c0.1,6.2-0.4,12.1-3.2,17.7c-1,2.1-0.2,4.5,0.1,6.8c0.2,1.9,0.7,3.8,0.7,5.7
	c0,4.6-2.9,8.1-7.3,7.6c-8-0.9-16-0.5-24.1-0.5c-4.5,0-9,0.5-13.4,0.6c-3.7,0.1-3.7-0.8-3.2-4.3c1.1-7.4,2.3-15,1.9-22.5
	c-0.5-9,0.6-17.9,1-26.8C306.7,399.1,306.6,396.8,306.6,394.5"/>
<path class="st1" d="M352.9,478c7.7,0,15.4-0.2,23.1,0.1c7.5,0.3,14.8-1.2,22.2-1.9c9.3-0.9,18.5-2.3,27.7-3.9c4-0.7,8,1.2,12.2,0.5
	c1.1-0.2,1.3,1,1.2,1.9c-1.3,9.2,2.6,17.9,2.7,27.1c0,4.8,1.2,9.7-0.2,14.5c-0.5,1.6,0,3,0.4,4.5c0.7,2.7,1.3,5.5,1.1,8.3
	c-0.1,0.9,0.1,2-0.9,2.4c-7,2.5-10.6,9.3-16.7,12.9c-5,3-10,6-15.1,8.9c-1,0.6-2.2,0.8-3.1,1.5c-10.2,7.6-22,11.2-34.4,13.4
	c-3.1,0.6-6.3,1.3-9.4,1.9c-0.2-2.9,1-6.1-0.8-8.7c-2-2.8-2.5-5.8-2.8-9c-0.2-2.7-1.2-4.6-4.2-5.1c-2-0.4-2.9-1.4-0.7-2.9
	c1-0.7,2.3-1.8,0.6-2.4c-3.4-1.1-2.4-3.6-1.8-5.2c0.9-2.3,0.4-4.3,0.1-6.4c-0.8-6.2-0.1-12.5-2.4-18.5c-0.2-0.4-0.1-1.1,0.2-1.5
	c2.6-4.7-0.2-9.6,0.4-14.5C352.9,490.2,351.8,484.1,352.9,478"/>
<path class="st2" d="M250.3,566.1c1.7-9.8,2.1-19.9-0.1-29.4c-2.1-8.7-0.8-17.3-1.2-25.8c-0.4-6.7,1.7-13.4,0.6-20.2
	c-0.2-1.5,1-2.6,1.7-3.8c2.1-3.2,4.8-6,6.1-9.7c11.7,0.8,23.4-0.1,35.1,1.3c-1.7,9.2-0.3,18.2,2.5,26.8c1.4,4.1,2.6,8.1,3.3,12.4
	c1,6.6,0.1,13.2,0.7,19.8c0.3,3.2,2.1,6,1.8,9.3c-0.8,8.3,0.2,16.6,0.5,25c-7.5,0.1-15-0.5-22.4-0.9c-6.3-0.4-12.9-0.2-19.1-2.2
	C256.7,567.7,253.4,567,250.3,566.1"/>
<path class="st0" d="M14.6,106.5c5.5-4,11-6.1,17.2-6.1c6.6,0,12.5,1.7,17.1,6.5c1.2,1.3,1.9,1.5,3.4,0.2c7.5-6.7,16.5-7.8,26-6
	c10.2,2,17.4,9.9,18,20.3c1,14.7-0.1,29.5,0.2,44.2c0,1.8-0.7,2.2-2.3,2.1c-4-0.1-8-0.2-11.9,0c-2.6,0.1-3.5-0.6-3.5-3.4
	c0.2-12.3,0.2-24.6,0-37c-0.1-8.9-6.6-13.7-15-11.5c-5.2,1.4-8.1,5.4-8.1,11.6c-0.1,12.2-0.1,24.4,0.1,36.6c0,2.8-0.6,3.9-3.6,3.7
	c-3.7-0.3-7.4-0.2-11.1,0c-2.6,0.1-3.2-0.8-3.2-3.3c0.1-12.4,0.1-24.9,0-37.3c-0.1-8.5-6.5-13.4-14.8-11.3
	c-5.4,1.4-8.3,5.3-8.4,11.8c-0.1,12.1-0.2,24.1,0.1,36.2c0.1,3.3-1,4.1-4.1,3.9c-3.8-0.3-7.7-0.1-11.6,0c-1.7,0.1-2.2-0.5-2.2-2.1
	c0.1-20.7,0.1-41.3,0-62c0-1.8,0.8-2.1,2.3-2.1c3.6,0.1,7.2,0.2,10.8,0C13.3,101.3,15.6,101.7,14.6,106.5"/>
<path class="st0" d="M219.1,159.2c-7.2,6.5-15,7.2-23.2,5.4c-8.7-1.9-14.4-7.3-16.1-16.1c-2-10.3-2-20.7,0-31
	c2.4-12.4,14.7-19.1,28.8-16.3c3.9,0.8,7.1,2.7,10.6,5.4c-1-5,1.6-5.3,4.9-5c4.2,0.4,9.6-1.8,12.2,0.8c2.4,2.4,0.6,7.8,0.7,11.9
	c0.1,16.6-0.4,33.1,0.1,49.7c0.4,15-8.9,27.3-26.6,29.1c-9.6,1-19,0.1-27.2-5.9c-2.5-1.8-3.3-3.3-0.4-5.3c0.6-0.4,1.2-1,1.7-1.5
	c3.6-4,6.9-7.9,12.9-2.7c2.7,2.3,7.1,1.9,10.8,1.2c6.5-1.2,10.1-5.2,10.7-11.7C219.3,164.8,219.1,162.5,219.1,159.2 M196.3,133
	c0.1,2.3,0.2,4.6,0.4,6.9c0.1,1,0.4,2,0.7,3c1.5,4.8,4.8,7.2,10.1,7.3c5.6,0.1,9.1-2.1,10.5-7.1c1.9-6.7,1.9-13.5,0.1-20.1
	c-1.4-5-4.8-7-10.6-7c-5.4,0-8.6,2.3-10.1,7.1C196.4,126.3,196.4,129.7,196.3,133"/>
<path class="st3" d="M301.3,571.9c-0.4-8.3-1.3-16.6-0.5-25c0.3-3.4-1.5-6.1-1.8-9.3c-0.6-6.6,0.3-13.2-0.7-19.8
	c-0.6-4.3-1.9-8.3-3.3-12.4c-2.9-8.6-4.2-17.6-2.5-26.8c8.9-0.8,17.7-0.2,26.5,0.3c2.5,6.4,2.3,13.3,2.7,20c0.2,3.3,0.2,6.2,2.3,8.9
	c0.4,0.5,0.7,1.1,0.8,1.7c1,4.8,3.3,8.9,5.7,13c1.7,2.9,3.5,5.7,4.2,9c0.3,1.3,0.8,2.5,1.9,3.3c5.4,3.6,8.3,9.1,11.2,14.6
	c2,3.9,4.3,7.6,5.1,11.9c0.7,3.7,2,7.1,4.2,10.1C338.5,573.2,319.9,571.9,301.3,571.9"/>
<path class="st0" d="M251.2,192.5c6,0,11.5,0.1,17.1-0.1c2.2-0.1,2.4,1.6,2.9,2.9c5.1,12.4,10.3,24.9,15.4,37.3
	c0.5,1.3,1.1,2.6,2,4.6c3.6-9.5,7-18.3,10.4-27.1c1.9-4.9,3.8-9.8,5.5-14.8c0.7-2.1,1.7-3,4.1-2.9c4.2,0.2,8.5,0.3,12.7,0
	c3.3-0.2,3.1,1,2.1,3.4c-6.8,15.6-13.4,31.3-20.1,47c-4.3,10-8.7,20-12.8,30.1c-3.6,8.8-10.3,13.1-19.5,13.6
	c-2.7,0.2-5.4,0.2-8.1,0.3c-1.6,0.1-2.4-0.5-2.2-2.2c0.1-0.8,0-1.5,0-2.3c0-3-0.9-6.4,0.4-8.7c1.3-2.5,5.2-0.6,7.8-1.2
	c2.2-0.5,4.3-1.3,5.3-3.4c1.8-3.8,3.4-7.7,5.1-11.6c0.7-1.5-0.5-2.7-1.1-3.9c-8.6-19.4-17.3-38.9-25.9-58.3
	C252,194.6,251.7,193.9,251.2,192.5"/>
<path class="st0" d="M470.6,225.8c0,10-0.1,20,0.1,30c0,2.3-0.5,3.2-3,3.1c-3.8-0.2-7.7-0.1-11.5-0.1c-1.7,0-3.4,0.5-3.7-2.4
	c-0.2-2.1-1.8-0.1-2.5,0.2c-9.8,4.8-19.8,5.2-29.8,1.2c-9-3.6-13.8-10.6-13.9-20.3c-0.2-14.1,0-28.2-0.1-42.4c0-2.2,0.7-2.9,2.9-2.8
	c4,0.2,8,0.2,11.9,0c2.5-0.1,2.9,0.9,2.9,3.2c-0.1,12.1,0,24.1-0.1,36.2c0,5.4,1,10.4,6.4,12.9c5.8,2.7,11.8,2.5,17.3-0.9
	c4.1-2.5,5.2-6.7,5.2-11.3c-0.1-12.1,0.1-24.1-0.1-36.2c0-2.9,0.5-4.2,3.7-3.9c3.6,0.3,7.2,0.3,10.8,0c3.1-0.3,3.6,0.9,3.5,3.7
	C470.5,206.1,470.6,216,470.6,225.8"/>
<path class="st0" d="M149.1,162.4c-8.2,7.1-16.9,7.1-25.8,5.3c-9.1-1.8-15-9.1-15.4-18.2c-0.3-10.1,4.3-16.7,13.7-19.7
	c6.6-2.1,13.5-1,20.2-1.5c2.2-0.2,5.5,1.9,6.6-1.5c1.3-3.7-1-8.6-4.2-10.3c-5.4-3-15.4-2.3-20,1.8c-1.9,1.7-2.9,1.7-4.5-0.1
	c-1.9-2.1-3.9-4.1-6.2-5.7c-3.3-2.3-2-3.8,0.3-5.6c2.4-1.8,4.8-3.6,7.6-4.3c10.7-3,21.3-3.1,31.8,0.8c9,3.4,13,10.5,13.1,19.8
	c0.2,13.9,0,27.7,0.1,41.6c0,2.7-1,3.2-3.4,3.1c-3.3-0.2-6.7-0.3-10,0C149.6,168.2,148,167.1,149.1,162.4 M135.4,154.9
	c9.7,0,13.8-4.2,13.2-12.7c-0.1-1,0.1-2.3-1.4-2.2c-5.7,0.3-11.5-0.9-17.2,0.7c-3.2,0.9-4.9,3.1-5,6.4c-0.1,3.3,1.5,5.5,4.5,6.9
	C131.5,154.9,133.7,154.9,135.4,154.9"/>
<path class="st0" d="M327.8,225.1c0.2-2.4,0.2-5.6,0.8-8.8c2.9-15.9,16.8-25.7,34.4-24.5c5.7,0.4,11.1,1.5,16.2,4.2
	c6.7,3.6,11.3,8.8,13.3,16.1c2.5,9.1,2.6,18.3,0.3,27.4c-2.5,9.8-9.3,15.8-18.6,18.8c-8.4,2.7-16.9,2.8-25.3,0.3
	c-12.1-3.6-19.3-12.5-20.5-25.1C328.1,231.1,328,228.5,327.8,225.1 M376.5,227.2c-0.5-4.3-0.2-7.8-1.2-11.1c-1.9-6.7-6.6-10-14.5-10
	c-7.6,0-12.5,3.3-14.1,9.9c-1.5,6.4-1.4,13-0.1,19.4c1.5,7.1,6.5,11,14.1,11c8.1,0.1,13.3-3.7,14.9-11
	C376.3,232.5,376.3,229.4,376.5,227.2"/>
<path class="st0" d="M396,140.4c-6.4,0-12.8,0.1-19.2-0.1c-2.4,0-3.2,0.6-2.6,3.1c1.1,5.2,3.9,9,9,10.5c6.9,2,13.6,1.6,19.3-3.1
	c2.5-2,3.7-1.6,5.5,0.4c1.9,2.1,4.1,3.9,6.2,5.7c1.6,1.4,1.3,2.3-0.2,3.6c-10.9,9.9-32.7,11.7-45,3.6c-4.5-3-7.9-7-9.7-12.1
	c-3.8-10.7-4.2-21.7-0.3-32.4c5.1-13.9,17.6-20.5,33.8-18.3c13.6,1.8,23.4,12.1,24.8,26c1.4,13.4,1.4,13.4-12,13.2
	c-3.2-0.1-6.4,0-9.6,0V140.4z M387.1,128.9c3.7,0,7.4-0.1,11.1,0c1.9,0,2.3-0.6,2.1-2.5c-1-6.8-5.9-11.2-12.8-11.4
	c-7.2-0.1-12.2,4.1-13.3,11.1c-0.3,2,0,2.9,2.2,2.8C379.9,128.8,383.5,128.9,387.1,128.9"/>
<path class="st0" d="M302.4,107.5c7.7-6,15.2-7.6,23.5-6c9.9,1.8,17.4,9.5,17.7,19.5c0.5,14.9,0.2,29.7,0.3,44.6
	c0,2.1-1,2.2-2.6,2.2c-4.1-0.1-8.2-0.2-12.3,0c-2.5,0.1-3-0.8-3-3.1c0.1-12.3,0.1-24.6,0-37c-0.1-8.7-6.7-13.6-15.1-11.3
	c-5.3,1.5-8,5.5-8.1,12.1c-0.1,11.8-0.1,23.6,0,35.4c0.1,2.8-0.4,4.1-3.7,3.9c-3.8-0.3-7.7-0.2-11.5,0c-2,0.1-2.6-0.6-2.6-2.6
	c0.1-20.3,0.1-40.5,0-60.8c0-2.2,0.6-3,2.8-2.9c3.3,0.2,6.7,0.2,10,0C301.6,101.3,304.1,101.8,302.4,107.5"/>
<path class="st4" d="M357.1,571.4c-2.2-3-3.5-6.4-4.2-10.1c-0.9-4.3-3.2-8-5.2-11.9c-2.8-5.6-5.8-11-11.2-14.7
	c-1.1-0.7-1.6-2-1.9-3.3c-0.7-3.4-2.4-6.2-4.2-9c-2.4-4.1-4.7-8.3-5.7-13c-0.1-0.6-0.4-1.3-0.8-1.7c-2.1-2.6-2.1-5.5-2.3-8.9
	c-0.4-6.7-0.2-13.6-2.7-20c4.1-0.9,8.2-1.3,12.5-1c5.7,0.4,11.5-0.2,17.3-0.3c1.4,0,2.8-0.4,4.1,0.5c-1,6,0,12.1-0.7,18.1
	c-0.6,4.8,2.3,9.7-0.4,14.5c-0.2,0.4-0.3,1.1-0.2,1.5c2.4,6,1.7,12.3,2.4,18.5c0.3,2,0.8,4.1-0.1,6.3c-0.6,1.6-1.6,4.2,1.8,5.2
	c1.7,0.6,0.4,1.7-0.6,2.4c-2.3,1.5-1.3,2.6,0.7,2.9c3,0.5,3.9,2.4,4.2,5.1c0.3,3.2,0.8,6.2,2.8,9c1.8,2.5,0.7,5.7,0.8,8.7
	C361.5,570.8,359.4,571.6,357.1,571.4"/>
<path class="st0" d="M-39,122.3c0-14.1,0.1-28.2-0.1-42.3c0-3,0.9-3.7,3.7-3.6c4.6,0.2,9.2,0.1,13.8,0c1.8-0.1,2.4,0.4,2.4,2.4
	c-0.1,28.9-0.1,57.8,0,86.6c0,2.1-0.7,2.6-2.6,2.5c-4.7-0.1-9.5-0.2-14.2,0c-2.7,0.1-3.1-1-3.1-3.3C-39,150.5-39,136.4-39,122.3"/>
<path class="st0" d="M503.6,197.3c7.3-5,14.9-6.5,23.1-5.7c2.3,0.2,3.1,0.9,3,3.3c-0.2,3.2-0.2,6.4,0,9.6c0.2,2.7-0.7,2.8-3,2.1
	c-3.8-1.3-7.8-1.5-11.8-0.8c-6.9,1.2-11.2,6.2-11.2,13.4c-0.1,12.2-0.1,24.4,0.1,36.5c0,2.7-0.8,3.5-3.4,3.4c-4-0.2-8-0.1-11.9,0
	c-1.9,0.1-2.7-0.4-2.7-2.5c0.1-20.4,0.1-40.8,0-61.2c0-2.2,0.7-2.9,2.9-2.8c3.5,0.2,6.9,0.2,10.4,0
	C502.2,192.2,504.5,192.6,503.6,197.3"/>
<path class="st0" d="M252.2,134.2c0-9.9,0.1-19.7-0.1-29.6c0-2.5,0.7-3.4,3.2-3.2c4,0.2,8,0.2,11.9,0c1.9-0.1,2.7,0.4,2.7,2.5
	c-0.1,20.5-0.1,41,0,61.5c0,1.8-0.6,2.4-2.4,2.4c-4.2-0.1-8.5-0.2-12.7,0c-2.3,0.1-2.8-0.8-2.7-2.9
	C252.3,154.7,252.2,144.5,252.2,134.2"/>
<path class="st0" d="M261.2,93.3c-6.5-0.1-11.1-4.5-10.9-10.8c0.1-5.7,5.1-10.3,11.2-10.2c6.1,0.1,10.9,4.9,10.8,10.7
	C272.2,88.9,267.4,93.4,261.2,93.3"/>
</svg>
